<svg width="59" height="59" viewBox="0 0 59 59" fill="none" xmlns="http://www.w3.org/2000/svg">
<g id="fi_10172608" clip-path="url(#clip0_9_5229)">
<path id="Vector" d="M48.5383 37.673C48.5383 36.5685 48.0172 35.5415 47.1737 34.8755C47.4721 34.3492 47.6303 33.7545 47.6303 33.1326C47.6303 32.292 47.3363 31.4938 46.8153 30.8624C47.3363 30.231 47.6303 29.4328 47.6303 28.5922C47.6303 27.7515 47.3363 26.9533 46.8153 26.3219C47.3363 25.6905 47.6303 24.8924 47.6303 24.0517C47.6303 23.2135 47.3347 22.414 46.8143 21.7815C47.3237 21.1638 47.6303 20.3727 47.6303 19.5113C47.6303 18.5993 47.2864 17.7665 46.7222 17.1343V9.52236C46.7222 4.54746 42.6747 0.5 37.6997 0.5H32.2512C31.5502 0.5 30.9114 0.77199 30.435 1.21606C29.9587 0.77199 29.3199 0.5 28.6189 0.5H18.7401C17.2095 0.5 15.9643 1.74531 15.9643 3.27598C15.9643 3.71144 16.0646 4.13137 16.253 4.51019C14.2197 6.52117 13.8345 9.06062 15.1816 11.7391C14.4674 12.4557 14.0889 13.2707 14.0576 14.17C14.0344 14.8369 14.2139 15.4537 14.4612 15.9779C12.7441 16.2374 11.4237 17.723 11.4237 19.5113C11.4237 20.3725 11.73 21.1633 12.2392 21.7811C11.7188 22.413 11.4237 23.2116 11.4237 24.0518C11.4237 24.8925 11.7177 25.6907 12.2386 26.322C11.7177 26.9534 11.4237 27.7516 11.4237 28.5923C11.4237 29.4329 11.7177 30.2311 12.2386 30.8626C11.7177 31.4939 11.4237 32.2921 11.4237 33.1327C11.4237 33.7548 11.5818 34.3494 11.8802 34.8756C11.0366 35.5416 10.5156 36.5686 10.5156 37.6731C10.5156 38.7776 11.0367 39.8046 11.8802 40.4707C11.5818 40.9969 11.4237 41.5916 11.4237 42.2135C11.4237 44.1842 13.0269 45.7875 14.9975 45.7875C15.0505 45.7875 15.1038 45.7861 15.1571 45.7835C15.5379 47.3475 16.9505 48.5117 18.6299 48.5117C19.4324 48.5117 20.1739 48.2457 20.7711 47.7974C21.2262 48.1488 21.9899 48.8445 22.3849 49.8022C22.52 50.13 22.8368 50.3282 23.1707 50.3282C23.2786 50.3282 23.3883 50.3074 23.4942 50.2638C23.928 50.0849 24.1346 49.5883 23.9558 49.1544C23.4283 47.8755 22.4696 46.9694 21.8514 46.4847C22.0772 46.0164 22.2038 45.4917 22.2038 44.938C22.2038 43.3205 21.1238 41.9506 19.6472 41.5114C19.6702 41.335 19.6869 41.1402 19.6936 40.9335C20.2122 41.1387 20.7697 41.2471 21.344 41.247C21.352 41.247 21.3601 41.247 21.3679 41.2469L22.2839 41.2367C23.0344 41.805 23.9686 42.143 24.9804 42.143H25.127C24.4831 42.9402 24.1342 43.9258 24.1369 44.9648C24.1421 46.8905 25.4032 48.6149 27.2218 49.2118C27.2818 49.3347 27.3473 49.4553 27.422 49.5716C27.6524 49.9308 27.7693 50.4086 27.7693 50.9918V55.7378C27.7693 57.0862 28.7255 58.2586 29.9937 58.465C30.1396 58.4887 30.2859 58.5003 30.431 58.5003C31.0631 58.5003 31.6763 58.279 32.1615 57.8663C32.7585 57.3586 33.1008 56.6182 33.1008 55.835V51.7202C33.1008 51.6573 33.1527 51.6128 33.1665 51.6092C33.4595 51.6889 33.7626 51.7294 34.0673 51.7294C35.0556 51.7294 35.9726 51.3254 36.6341 50.6323C37.2136 51.0229 37.8965 51.2362 38.6077 51.2362C39.9237 51.2362 41.112 50.5045 41.7289 49.3823C42.2929 49.4656 42.8681 49.4104 43.4262 49.2156C44.4399 48.8621 45.256 48.046 45.6095 47.0323C45.8041 46.4743 45.8595 45.8991 45.7762 45.3351C46.8986 44.7182 47.6301 43.5299 47.6301 42.2139C47.6301 41.592 47.472 40.9972 47.1736 40.471C48.0172 39.8045 48.5383 38.7776 48.5383 37.673ZM18.7401 2.19923H28.6189C29.1519 2.19923 29.5854 2.63288 29.5854 3.16576V9.24833C29.5854 9.71754 29.9658 10.0979 30.435 10.0979C30.9043 10.0979 31.2847 9.71754 31.2847 9.24833V3.16576C31.2847 2.63276 31.7183 2.19923 32.2512 2.19923H37.6997C41.7378 2.19923 45.023 5.48441 45.023 9.52236V16.0713C44.7153 15.9848 44.3914 15.9374 44.0564 15.9374C42.8989 15.9374 41.8691 16.4915 41.2174 17.3533L40.8728 16.8364C39.7506 15.1533 38.0518 13.9561 36.0892 13.4655L27.2127 11.2464C25.4466 10.8048 23.8324 9.89097 22.5449 8.60352L17.9788 4.03723C17.7754 3.83389 17.6634 3.56349 17.6634 3.27587C17.6634 2.68227 18.1464 2.19923 18.7401 2.19923ZM39.9501 18.5158C39.4614 18.6173 39.0055 18.8183 38.608 19.1029L37.9802 16.2136C38.5523 16.6445 39.0535 17.1711 39.4589 17.779L39.9501 18.5158ZM17.3527 5.81429L21.3435 9.80511C22.8487 11.3103 24.7357 12.3787 26.8006 12.8949L35.2245 15.0009C35.7519 15.2489 36.1355 15.7272 36.2599 16.2999L37.0557 19.9621C36.2374 19.9782 35.4606 20.2789 34.8461 20.794L34.5821 19.391C34.4924 18.9142 34.2065 18.4914 33.7982 18.231C33.3968 17.9751 32.9033 17.8954 32.4447 18.0124C29.8194 18.6818 26.4842 18.2077 23.2942 16.712C20.2639 15.2912 17.8018 13.1533 16.7081 10.993C15.7115 9.02471 15.9298 7.28605 17.3527 5.81429ZM16.1224 13.2405C17.5811 15.1851 19.8836 16.9897 22.5728 18.2505C26.1131 19.9104 29.8642 20.4237 32.8645 19.659C32.8682 19.6579 32.8734 19.6566 32.8849 19.6638C32.8932 19.6692 32.9078 19.6816 32.9123 19.7054L33.1572 21.0066C32.4253 21.0582 31.7353 21.3343 31.1696 21.7964C30.6618 21.5289 30.0981 21.3861 29.5271 21.3861C28.956 21.3861 28.3925 21.5289 27.8846 21.7964C27.2545 21.2818 26.4708 20.9969 25.6464 20.9969C25.2854 20.9969 24.9317 21.0526 24.5884 21.163C23.918 20.4075 22.9534 19.9602 21.9296 19.9602C21.7273 19.9602 21.5263 19.9774 21.328 20.0118C20.6788 19.0453 19.5961 18.449 18.3985 18.44C18.136 17.599 17.5732 16.8971 16.839 16.4523C16.5247 16.157 15.7197 15.1619 15.7561 14.2228C15.7694 13.8786 15.8906 13.5535 16.1224 13.2405ZM14.9976 17.6366C15.9935 17.6366 16.8115 18.4204 16.86 19.4211C16.8723 19.6754 16.9981 19.9108 17.2026 20.0624C17.407 20.214 17.6689 20.266 17.9157 20.2038C18.0918 20.1595 18.2365 20.1389 18.3709 20.1389C19.1419 20.1389 19.8245 20.6052 20.1099 21.3267C20.1934 21.5377 20.3579 21.7066 20.5668 21.7957C20.7756 21.8847 21.0114 21.8863 21.2215 21.8006C21.4506 21.7068 21.6889 21.6593 21.9294 21.6593C22.5999 21.6593 23.2238 22.0311 23.5576 22.6296C23.6681 22.8278 23.8536 22.9737 24.0723 23.0344C24.291 23.0951 24.5251 23.0658 24.7221 22.9529C25.0195 22.7824 25.3303 22.6959 25.6462 22.6959C26.2132 22.6959 26.7462 22.9586 27.1085 23.4165C27.2514 23.5971 27.4615 23.712 27.6907 23.7348C27.9198 23.7576 28.1484 23.6866 28.3241 23.5376C28.5679 23.3311 28.9745 23.0849 29.527 23.0849C30.0795 23.0849 30.486 23.3311 30.7298 23.5376C30.9055 23.6865 31.1348 23.7577 31.3633 23.7348C31.5924 23.712 31.8025 23.5971 31.9454 23.4165C32.3077 22.9586 32.8407 22.6959 33.4078 22.6959C33.7236 22.6959 34.0345 22.7824 34.3318 22.9529C34.5288 23.0658 34.7629 23.0951 34.9816 23.0344C35.2004 22.9737 35.3858 22.8279 35.4964 22.6296C35.8301 22.0311 36.4541 21.6593 37.1246 21.6593C37.3651 21.6593 37.6032 21.7068 37.8325 21.8006C38.0425 21.8864 38.2784 21.8847 38.4871 21.7957C38.696 21.7066 38.8605 21.5377 38.944 21.3267C39.2295 20.6052 39.912 20.1389 40.683 20.1389C40.8175 20.1389 40.9621 20.1595 41.1383 20.2038C41.3854 20.2659 41.647 20.2139 41.8514 20.0624C42.056 19.9108 42.1817 19.6753 42.194 19.4211C42.2424 18.4204 43.0606 17.6366 44.0563 17.6366C45.09 17.6366 45.9309 18.4775 45.9309 19.5112C45.9309 20.5449 45.09 21.3858 44.0563 21.3858C43.922 21.3858 43.7773 21.3652 43.6009 21.3209C43.3539 21.2588 43.0922 21.3107 42.8877 21.4624C42.6832 21.614 42.5575 21.8495 42.5451 22.1037C42.4966 23.1043 41.6786 23.8881 40.6828 23.8881C40.4423 23.8881 40.2042 23.8407 39.975 23.7469C39.7648 23.6609 39.529 23.6626 39.3202 23.7516C39.1114 23.8407 38.9468 24.0096 38.8633 24.2206C38.5779 24.9422 37.8954 25.4084 37.1244 25.4084C36.8085 25.4084 36.4977 25.3219 36.2003 25.1514C36.0033 25.0385 35.7694 25.0092 35.5505 25.0699C35.3318 25.1306 35.1463 25.2764 35.0358 25.4747C34.702 26.0732 34.0781 26.445 33.4076 26.445C32.8551 26.445 32.4485 26.1988 32.2047 25.9923C32.029 25.8435 31.8001 25.7726 31.5713 25.7951C31.3421 25.818 31.1321 25.9329 30.9891 26.1134C30.6268 26.5713 30.0938 26.834 29.5267 26.834C28.9597 26.834 28.4267 26.5713 28.0644 26.1134C27.9215 25.9329 27.7114 25.818 27.4822 25.7951C27.454 25.7923 27.4259 25.7909 27.3979 25.7909C27.1978 25.7909 27.0029 25.8617 26.8488 25.9923C26.605 26.1988 26.1984 26.445 25.6459 26.445C24.9754 26.445 24.3515 26.0732 24.0177 25.4747C23.9072 25.2765 23.7217 25.1306 23.503 25.0699C23.2841 25.009 23.0502 25.0385 22.8532 25.1514C22.5558 25.3219 22.2449 25.4084 21.9291 25.4084C21.1581 25.4084 20.4756 24.9421 20.1901 24.2206C20.1067 24.0096 19.9421 23.8407 19.7333 23.7516C19.5243 23.6625 19.2885 23.6609 19.0785 23.7469C18.8493 23.8407 18.6112 23.8881 18.3707 23.8881C17.3749 23.8881 16.5568 23.1043 16.5084 22.1037C16.496 21.8494 16.3703 21.614 16.1658 21.4624C15.9612 21.3108 15.6995 21.259 15.4526 21.3209C15.2763 21.3652 15.1316 21.3858 14.9972 21.3858C13.9635 21.3858 13.1226 20.5449 13.1226 19.5112C13.1226 18.4775 13.9639 17.6366 14.9976 17.6366ZM34.0797 32.1653C34.5489 32.1653 34.9293 31.7849 34.9293 31.3157V27.7974C35.3583 27.5923 35.7462 27.3027 36.0665 26.9417C36.3227 27.0241 36.5847 27.0759 36.8512 27.0969C36.8512 27.0969 36.8618 31.0719 36.8618 31.361C36.8618 32.828 35.5065 34.0963 33.9871 34.0963C32.5096 34.0379 31.3036 32.8185 31.2996 31.3227L31.2864 28.0639C31.4538 27.9676 31.6141 27.8577 31.7654 27.7342C32.2205 27.9739 32.7204 28.1125 33.2303 28.1389V31.3156C33.2301 31.7849 33.6105 32.1653 34.0797 32.1653ZM34.1161 35.7861H38.6072C39.0764 35.7861 39.4568 35.4057 39.4568 34.9365C39.4568 34.4673 39.0764 34.0869 38.6072 34.0869H37.6044C38.0499 33.5228 38.3498 32.8672 38.4836 32.166C38.4836 32.166 38.5326 32.1604 38.6832 32.1604C39.3906 32.1604 40.0969 32.4902 40.5701 32.961C41.097 33.4852 41.3884 34.1832 41.3904 34.9266C41.3946 36.4608 40.1497 37.7126 38.6153 37.7167L33.1559 37.7296C32.3779 37.1327 31.4315 36.8086 30.4342 36.8086C30.4301 36.8086 30.4258 36.8086 30.4217 36.8086L30.3389 36.809C30.7954 36.2294 31.1119 35.5354 31.2378 34.7776C32.0123 35.4153 33.0243 35.7861 34.1161 35.7861ZM38.8243 30.4576C38.6095 30.4576 38.5612 30.4526 38.5612 30.4526L38.5494 26.812C39.1667 26.5439 39.6994 26.1047 40.0812 25.536C40.1952 25.5557 40.3101 25.5692 40.4255 25.5776C41.0409 26.1073 41.3906 26.8647 41.3906 27.6842C41.3906 29.1958 40.1042 30.4576 38.8243 30.4576ZM26.815 34.8903C27.2842 34.8903 27.6646 34.5099 27.6646 34.0407V28.0028C28.2188 28.3469 28.8595 28.5337 29.527 28.5337C29.5471 28.5337 29.5672 28.5327 29.5874 28.5325L29.6002 34.0339C29.6043 35.5683 28.3594 36.82 26.825 36.8241C26.8224 36.8241 26.82 36.8241 26.8174 36.8241C25.2866 36.8241 24.039 35.5808 24.0348 34.0495L24.022 27.7475C24.5173 28.0041 25.0725 28.1447 25.6464 28.1447C25.7532 28.1447 25.8595 28.138 25.9655 28.1282V34.0407C25.9654 34.5099 26.3458 34.8903 26.815 34.8903ZM20.4467 30.3474H22.328L22.3319 32.2727L20.4536 32.2829C20.451 32.2829 20.4487 32.2829 20.4459 32.2829C18.9152 32.2828 17.6676 31.0395 17.6634 29.5077C17.6593 28.016 18.8361 26.7918 20.3115 26.7211C20.8012 26.97 21.352 27.1078 21.9295 27.1078C22.0612 27.1078 22.1916 27.0979 22.3213 27.083L22.3245 28.648H20.4467C19.9775 28.648 19.5971 29.0284 19.5971 29.4976C19.5971 29.9668 19.9775 30.3474 20.4467 30.3474ZM20.5046 44.9376C20.5046 45.9713 19.6637 46.8122 18.63 46.8122C17.6043 46.8122 16.7682 45.984 16.7555 44.9612L16.7565 44.9544C16.7627 44.9098 16.7681 44.865 16.771 44.8195C16.7892 44.5334 16.662 44.2574 16.4326 44.0855C16.2031 43.9136 15.9025 43.869 15.633 43.9669C15.4085 44.0485 15.2006 44.0881 14.9976 44.0881C13.9639 44.0881 13.123 43.2471 13.123 42.2134C13.123 41.6927 13.3382 41.2064 13.729 40.8442C13.9457 40.6433 14.0424 40.3444 13.9846 40.0547C13.9267 39.7649 13.7225 39.5261 13.4452 39.424C12.7093 39.1527 12.215 38.4492 12.215 37.6731C12.215 36.8971 12.7093 36.1935 13.4452 35.9222C13.7224 35.82 13.9267 35.5812 13.9846 35.2914C14.0424 35.0018 13.9457 34.7028 13.729 34.502C13.3383 34.1397 13.123 33.6534 13.123 33.1326C13.123 32.504 13.4377 31.92 13.9647 31.5705C14.2021 31.4131 14.3448 31.1472 14.3448 30.8624C14.3448 30.5777 14.2021 30.3118 13.9647 30.1544C13.4377 29.805 13.123 29.2209 13.123 28.5923C13.123 27.9637 13.4377 27.3796 13.9647 27.0301C14.2021 26.8726 14.3448 26.6069 14.3448 26.3221C14.3448 26.0373 14.2021 25.7714 13.9647 25.6141C13.4377 25.2646 13.123 24.6806 13.123 24.0519C13.123 23.5846 13.2966 23.1412 13.6014 22.8011C14.0227 22.9805 14.4851 23.0817 14.9703 23.0853C15.4155 24.5118 16.7227 25.5403 18.2706 25.5836C16.8925 26.3521 15.9597 27.826 15.9643 29.5126C15.9689 31.2149 16.9271 32.6956 18.3312 33.4504C17.4265 34.2735 16.859 35.4607 16.8626 36.7771C16.8651 37.6877 17.1378 38.5558 17.6414 39.2909C18.3227 40.3971 17.8307 41.9252 17.8269 41.9369C17.7375 42.1965 17.779 42.4834 17.9384 42.7069C18.0978 42.9305 18.3555 43.0632 18.6301 43.0632C19.6637 43.063 20.5046 43.9039 20.5046 44.9376ZM20.5046 37.6669C20.5046 38.3248 20.6485 38.9494 20.9046 39.5127C20.3311 39.4222 19.8017 39.1553 19.3821 38.7379C18.8551 38.2138 18.5638 37.5157 18.5617 36.7724C18.5575 35.2381 19.8025 33.9863 21.3414 33.9822L22.3354 33.9742L22.3355 34.0534C22.3355 34.0548 22.3356 34.0563 22.3356 34.0579C21.1955 34.8952 20.5046 36.2339 20.5046 37.6669ZM26.9001 47.137C26.2482 46.6204 25.8385 45.8234 25.8361 44.9598C25.8319 43.4255 27.0639 42.1426 28.6124 42.1426H30.4344C30.9036 42.1426 31.284 41.7622 31.284 41.293C31.284 40.8238 30.9036 40.4434 30.4344 40.4434H24.9803C23.4493 40.4434 22.2037 39.1979 22.2037 37.6669C22.2037 37.0478 22.4117 36.4569 22.7768 35.9794C23.5012 37.4834 25.0504 38.5226 26.827 38.5226L30.4275 38.5079H30.4353C31.1756 38.5079 31.8721 38.7952 32.3973 39.3175C32.9243 39.8416 33.2157 40.5397 33.2177 41.2829C33.2219 42.8173 31.886 44.0741 30.3516 44.0783C28.6354 44.1586 27.1467 45.4688 26.9001 47.137ZM45.6088 39.4239C45.3316 39.526 45.1274 39.7648 45.0695 40.0546C45.0116 40.3443 45.1084 40.6432 45.3251 40.8441C45.7158 41.2063 45.931 41.6926 45.931 42.2133C45.931 43.0515 45.3603 43.7914 44.5431 44.0126C44.3088 44.076 44.1128 44.2365 44.0045 44.4538C43.8963 44.671 43.8862 44.9242 43.9766 45.1494C44.1506 45.5827 44.1602 46.0276 44.0051 46.4723C43.8235 46.9929 43.3873 47.4291 42.8667 47.6106C42.4221 47.7656 41.977 47.7561 41.5438 47.5821C41.3186 47.4917 41.0656 47.5018 40.8482 47.6101C40.6309 47.7184 40.4704 47.9143 40.4069 48.1486C40.1858 48.9658 39.446 49.5366 38.6077 49.5366C38.0485 49.5366 37.5199 49.2792 37.1577 48.8305C36.976 48.6055 36.6926 48.4882 36.4049 48.5196C36.1175 48.5508 35.8657 48.726 35.7365 48.9848C35.4147 49.6292 34.7751 50.0296 34.0673 50.0296C33.9131 50.0296 33.7602 50.0092 33.6125 49.9691C33.0968 49.8287 32.5529 49.9381 32.1199 50.2689C31.67 50.6127 31.4016 51.155 31.4016 51.7197V55.8346C31.4016 56.1186 31.2773 56.3872 31.0606 56.5715C30.8409 56.7583 30.5587 56.835 30.2665 56.7873C29.819 56.7145 29.4685 56.2533 29.4685 55.7374V50.9913C29.4685 50.0776 29.2611 49.2911 28.8522 48.6535C28.6613 48.3562 28.5605 48.0132 28.5605 47.6618C28.5605 46.6281 29.4903 45.7729 30.524 45.7729C30.9874 45.7544 31.5237 45.6606 31.9407 45.5113C32.7644 46.269 33.8494 46.6976 34.9755 46.6976H34.9874L36.6309 46.6946C37.1001 46.6938 37.4798 46.3128 37.479 45.8436C37.4782 45.3748 37.098 44.9954 36.6294 44.9954C36.6289 44.9954 36.6284 44.9954 36.6278 44.9954L34.9835 44.9984C34.9811 44.9984 34.9786 44.9984 34.9761 44.9984C34.4459 44.9984 33.9304 44.8454 33.4891 44.5667C33.9393 44.1467 34.3029 43.6357 34.5506 43.0628H37.6996C38.1688 43.0628 38.5492 42.6824 38.5492 42.2132C38.5492 41.744 38.1688 41.3636 37.6996 41.3636H34.9149C34.9154 41.3352 34.9169 41.3069 34.9168 41.2784C34.915 40.6285 34.775 40.0007 34.5124 39.4269L37.6559 39.4186C39.1867 39.4186 40.4781 40.6715 40.4823 42.2033C40.4846 43.0694 40.0938 43.8721 39.4102 44.406C39.0403 44.6948 38.9746 45.2287 39.2633 45.5985C39.4309 45.8131 39.681 45.9253 39.9336 45.9253C40.1165 45.9253 40.3007 45.8666 40.4559 45.7453C41.5563 44.8861 42.1853 43.5933 42.1815 42.1987C42.178 40.8885 41.6096 39.7092 40.708 38.8914C42.1272 38.1352 43.0942 36.6387 43.0896 34.9217C43.0855 33.4372 42.3561 32.1219 41.239 31.3088C42.3593 30.4933 43.0896 29.1725 43.0896 27.6839C43.0896 26.7736 42.821 25.9114 42.33 25.1838C43.1592 24.7503 43.7983 23.9989 44.0835 23.0849C44.5686 23.0813 45.0308 22.9803 45.452 22.8008C45.7567 23.1414 45.9308 23.5852 45.9308 24.0516C45.9308 24.6802 45.6161 25.2642 45.0891 25.6137C44.8518 25.7711 44.709 26.037 44.709 26.3218C44.709 26.6065 44.8518 26.8724 45.089 27.0298C45.6161 27.3792 45.9308 27.9633 45.9308 28.5919C45.9308 29.2205 45.6161 29.8046 45.089 30.1541C44.8517 30.3116 44.709 30.5774 44.709 30.8621C44.709 31.1469 44.8518 31.4128 45.0891 31.5701C45.6161 31.9196 45.9308 32.5036 45.9308 33.1323C45.9308 33.653 45.7157 34.1394 45.3248 34.5016C45.1081 34.7025 45.0114 35.0014 45.0693 35.2911C45.1272 35.5809 45.3313 35.8197 45.6086 35.9219C46.3445 36.1932 46.8389 36.8966 46.8389 37.6727C46.8389 38.4488 46.3447 39.1527 45.6088 39.4239Z" fill="#67D2DF"/>
</g>
<defs>
<clipPath id="clip0_9_5229">
<rect width="58" height="58" fill="white" transform="translate(0.526855 0.5)"/>
</clipPath>
</defs>
</svg>
