<svg width="70" height="71" viewBox="0 0 70 71" fill="none" xmlns="http://www.w3.org/2000/svg">
<g id="fi_9654177">
<g id="Group">
<path id="Vector" d="M10.7914 39.8165L14.3953 31.7708C13.877 21.5938 20.0852 12.1578 29.6944 9.03307C52.0021 1.82743 68.4816 30.1261 51.5576 46.4777V61.7422C51.5429 63.5684 48.8058 63.5871 48.7911 61.7422V45.9126C56.3161 37.7546 58.6161 26.3109 50.7498 17.2903C38.2947 3.358 15.8025 13.4414 17.1545 32.0851C17.1545 32.2853 17.112 32.4837 17.0309 32.667L13.3016 40.9878C13.2684 41.0627 13.296 41.1525 13.3661 41.1955L16.4831 43.0928C16.8999 43.3454 17.1545 43.8039 17.1545 44.296V51.264C17.1581 53.3783 18.8458 55.0904 20.9299 55.0923H29.5395C30.303 55.0923 30.9227 55.721 30.9227 56.4956V61.7422C30.919 63.5646 28.1635 63.5871 28.1562 61.7422V57.9045H20.941C17.326 57.9045 14.3953 54.9313 14.3934 51.264V45.0893L11.9478 43.5924C10.6715 42.8178 10.1716 41.1918 10.7914 39.8165Z" fill="#F0AB00"/>
<path id="Vector_2" d="M26.6665 27.6061C32.5335 27.7539 32.5372 36.4807 26.6702 36.6323C20.8014 36.4826 20.8033 27.7651 26.6665 27.6061ZM26.6665 33.8256V33.8238C28.8669 33.8163 28.8706 30.4221 26.6702 30.4109C24.468 30.4184 24.4662 33.8125 26.6665 33.8256Z" fill="#F0AB00"/>
<path id="Vector_3" d="M41.2556 41.6394C47.1226 41.7872 47.1263 50.5141 41.2593 50.6656C35.3905 50.5159 35.3924 41.7984 41.2556 41.6394ZM41.2556 47.859V47.8571C43.456 47.8496 43.4597 44.4554 41.2593 44.4442C39.0571 44.4517 39.0553 47.8459 41.2556 47.859Z" fill="#F0AB00"/>
</g>
</g>
</svg>
